<svg width="301" height="300" viewBox="0 0 301 300" fill="none" xmlns="http://www.w3.org/2000/svg">
<rect x="0.92041" width="300" height="300" rx="30" fill="#2DC852"/>
<path d="M238.819 150C238.819 198.545 199.465 237.899 150.92 237.899C102.375 237.899 63.0216 198.545 63.0216 150C63.0216 101.455 102.375 62.1012 150.92 62.1012C199.465 62.1012 238.819 101.455 238.819 150Z" stroke="#323232" stroke-width="21.0979"/>
<path d="M115.598 181.533C116.252 148.696 120.925 117.98 128.536 95.3151C132.658 83.0376 137.275 74.2274 141.756 68.6998C146.309 63.0824 149.619 62.1063 151.285 62.1063C152.95 62.1063 156.26 63.0824 160.814 68.6998C165.295 74.2274 169.911 83.0376 174.034 95.3151C181.644 117.979 186.317 148.692 186.971 181.526C163.568 187.437 138.98 187.453 115.598 181.533Z" stroke="#323232" stroke-width="21.0979"/>
<path d="M150.83 185.397C124.831 185.333 101.819 180.336 85.709 172.77C68.743 164.802 63.0036 155.941 63.0187 149.787C63.0339 143.634 68.8168 134.801 85.8218 126.917C101.969 119.429 125.005 114.546 151.004 114.61C177.004 114.674 200.015 119.671 216.125 127.237C233.091 135.205 238.831 144.066 238.816 150.22C238.8 156.373 233.017 165.206 216.013 173.091C199.865 180.578 176.83 185.461 150.83 185.397Z" stroke="#323232" stroke-width="21.0979"/>
</svg>
