<svg width="111" height="29" viewBox="0 0 111 29" fill="none" xmlns="http://www.w3.org/2000/svg">
<path d="M18.3896 14.5C18.3896 19.2907 14.506 23.1743 9.71533 23.1743C4.92464 23.1743 1.04102 19.2907 1.04102 14.5C1.04102 9.70931 4.92464 5.82569 9.71533 5.82569C14.506 5.82569 18.3896 9.70931 18.3896 14.5Z" stroke="#FCFCF7" stroke-width="2.08205"/>
<path d="M6.22949 17.6118C6.29398 14.3713 6.75519 11.3401 7.50623 9.1034C7.91305 7.89179 8.36865 7.02235 8.81084 6.47686C9.26021 5.92251 9.58685 5.82618 9.75122 5.82618C9.91559 5.82618 10.2422 5.92251 10.6916 6.47686C11.1338 7.02235 11.5894 7.8918 11.9962 9.1034C12.7472 11.34 13.2084 14.3709 13.2729 17.6112C10.9634 18.1945 8.53693 18.196 6.22949 17.6118Z" stroke="#FCFCF7" stroke-width="2.08205"/>
<path d="M9.70636 17.9932C7.14059 17.9869 4.86971 17.4938 3.27986 16.7471C1.60557 15.9607 1.03918 15.0863 1.04067 14.479C1.04216 13.8718 1.61286 13.0001 3.29099 12.222C4.8845 11.4832 7.15778 11.0013 9.72354 11.0076C12.2893 11.0139 14.5602 11.507 16.15 12.2537C17.8243 13.04 18.3907 13.9145 18.3892 14.5217C18.3877 15.129 17.817 16.0006 16.1389 16.7787C14.5454 17.5176 12.2721 17.9995 9.70636 17.9932Z" stroke="#FCFCF7" stroke-width="2.08205"/>
<path d="M26.1924 22V6.36479H32.0501C35.8598 6.36479 37.8857 7.66406 37.8857 10.5929C37.8857 12.4427 36.7627 13.6759 34.8028 13.9181C37.2031 14.1604 38.5464 15.5697 38.5464 17.7058C38.5464 20.5686 36.4984 22 32.8428 22H26.1924ZM29.0552 12.9272H31.962C33.8338 12.9272 34.9569 12.2005 34.9569 10.8572C34.9569 9.44779 33.8999 8.78715 31.962 8.78715H29.0552V12.9272ZM29.0552 19.5776H32.7107C34.4945 19.5776 35.6175 18.8289 35.6175 17.3975C35.6175 15.9441 34.5165 15.1734 32.7107 15.1734H29.0552V19.5776ZM43.8221 22.2643C41.4217 22.2643 39.9463 20.6127 39.9463 17.8159V10.2406H42.765V17.1112C42.765 19.0932 43.4037 19.974 44.769 19.974C46.2885 19.974 47.1693 18.939 47.1693 17.0011V10.2406H49.9881V22H47.4116L47.3675 20.0841C46.7509 21.5155 45.5397 22.2643 43.8221 22.2643ZM52.3917 25.3032V23.1231H53.8891C54.6599 23.1231 54.9462 22.9029 55.1664 22.3523L55.4967 21.5376H54.6819L50.4758 10.2406H53.4047L56.3555 18.895L59.1743 10.2406H62.1031L57.5006 23.2332C56.9721 24.6866 56.1133 25.3032 54.3956 25.3032H52.3917ZM69.118 22.2643C67.4664 22.2643 66.2111 21.5155 65.5505 20.2603L65.4844 22H62.7978V6.36479H65.6166V11.9142C66.2332 10.8572 67.4884 9.97631 69.118 9.97631C72.1569 9.97631 74.0728 12.3766 74.0728 16.1203C74.0728 19.8639 72.1569 22.2643 69.118 22.2643ZM68.4793 19.974C70.0869 19.974 71.1439 18.5206 71.1439 16.1203C71.1439 13.6759 70.1089 12.2665 68.5014 12.2665C66.6736 12.2665 65.6166 13.6759 65.6166 16.1203C65.6166 18.5206 66.6736 19.974 68.4793 19.974ZM78.7444 22.2643C76.278 22.2643 74.6484 21.0971 74.6484 19.0491C74.6484 17.0232 75.9037 15.9441 78.4802 15.4376L82.378 14.6669C82.378 13.0153 81.6072 12.1564 80.1098 12.1564C78.7444 12.1564 77.9737 12.795 77.7094 13.9842L74.8466 13.8521C75.3091 11.3857 77.2029 9.97631 80.1098 9.97631C83.457 9.97631 85.1967 11.738 85.1967 14.8651V19.1372C85.1967 19.7758 85.4169 19.952 85.8573 19.952H86.2317V22C86.0335 22.044 85.5931 22.0881 85.1967 22.0881C83.9195 22.0881 82.9725 21.6256 82.7523 20.1942C82.1577 21.4495 80.6603 22.2643 78.7444 22.2643ZM79.317 20.2163C81.1888 20.2163 82.378 19.0271 82.378 17.2434V16.5827L79.339 17.1993C78.0838 17.4416 77.5773 17.9701 77.5773 18.7849C77.5773 19.7098 78.1939 20.2163 79.317 20.2163ZM91.6108 22.2643C88.1314 22.2643 86.3256 20.6127 86.1495 18.3004L89.0343 18.1683C89.2325 19.4015 90.0032 20.1062 91.6328 20.1062C92.9321 20.1062 93.7469 19.7098 93.7469 18.7849C93.7469 17.9921 93.3284 17.6398 91.1703 17.2654C87.5588 16.6488 86.4357 15.6799 86.4357 13.6759C86.4357 11.4958 88.1314 9.97631 91.4126 9.97631C94.5837 9.97631 96.2133 11.672 96.5216 13.9402L93.6808 14.0723C93.4826 12.8831 92.6898 12.1344 91.3685 12.1344C90.0473 12.1344 89.3646 12.729 89.3646 13.5878C89.3646 14.5347 89.9812 14.9091 91.7649 15.1954C95.4645 15.7679 96.6537 16.7809 96.6537 18.7408C96.6537 21.009 94.6277 22.2643 91.6108 22.2643ZM102.839 22.2643C99.316 22.2643 97.0698 19.8419 97.0698 16.1203C97.0698 12.4207 99.316 9.97631 102.773 9.97631C106.143 9.97631 108.345 12.3106 108.345 16.2744V16.9131H99.9987C100.087 18.9831 101.166 20.0181 102.861 20.0181C104.117 20.0181 104.954 19.4235 105.306 18.3885L108.191 18.5647C107.552 20.8549 105.548 22.2643 102.839 22.2643ZM99.9987 15.0192H105.438C105.306 13.1033 104.271 12.2005 102.773 12.2005C101.254 12.2005 100.219 13.1914 99.9987 15.0192Z" fill="#F1F1EA"/>
</svg>
